<svg width="113" height="54" viewBox="0 0 113 54" fill="none" xmlns="http://www.w3.org/2000/svg">
<path d="M15.4488 45.3999C16.778 45.3999 18.0125 44.5477 18.0125 42.984C18.0125 42.0176 17.5424 41.1989 16.6732 40.803C16.0847 40.5345 15.5063 40.5345 15.4488 40.5345C14.8367 40.5345 14.2482 40.1721 14.2482 39.4977C14.2482 38.7394 14.8028 38.3635 15.4488 38.3635C16.0712 38.3635 16.6022 38.6689 16.6258 39.3467H17.9889C17.9652 37.9575 16.8727 37.0012 15.4488 37.0012C14.1196 37.0012 12.875 37.9441 12.875 39.4977C12.875 40.4641 13.3553 41.1888 14.2143 41.5848C14.813 41.8532 15.3778 41.8532 15.4488 41.8532C16.0001 41.8767 16.6495 42.2961 16.6495 42.984C16.6495 43.6249 16.0847 44.0343 15.4488 44.0343C14.8367 44.0343 14.2718 43.6954 14.2482 43.0209H12.875C12.8987 44.5477 14.0249 45.363 15.4488 45.3999ZM28.4635 37.1053H27.0666L24.0666 43.4638L20.9415 37.1053H19.5413V45.2825H20.9178V40.1621L23.4342 45.2825H24.7262L27.0903 40.2661V45.2825H28.4635V37.1053ZM34.4837 45.2825H35.9651L32.6743 36.8838L29.3936 45.2825H30.875L31.2267 44.3363H34.1218L34.4837 45.2825ZM32.6743 40.3265L33.672 43.1585H31.6732L32.6743 40.3265ZM42.8208 45.2825L40.5886 41.7358C41.3868 41.5143 42.398 40.9439 42.398 39.4977C42.398 37.1187 39.6449 37.1187 39.6449 37.1187H36.9054V38.481L38.2109 40.5245H36.9054V45.2825H38.2819V41.8767H39.07L41.2109 45.2825H42.8208ZM38.5424 38.481H39.6449C39.6449 38.481 41.0215 38.481 41.0215 39.4977C41.0215 40.303 40.1861 40.4775 39.8242 40.511L38.5424 38.481ZM48.2188 37.1187H43.3958V38.3635H45.1241V45.2825H46.4905V38.3635H48.2188V37.1187ZM57.2593 44.0343C55.7441 44.0343 54.5333 42.9505 54.5333 41.1989C54.5333 39.5547 55.5682 38.3635 57.2593 38.3635C58.0136 38.3635 58.7069 38.6689 59.2007 39.1588L60.1646 38.2025C59.4239 37.4542 58.3991 37.0012 57.2593 37.0012C54.8478 37.0012 53.1331 38.7394 53.1331 41.1989C53.1331 43.7658 54.9899 45.3999 57.2593 45.3999C58.3991 45.3999 59.4239 44.9436 60.1646 44.2088L59.2007 43.2424C58.7069 43.7323 58.0136 44.0343 57.2593 44.0343ZM62.9515 43.9168V37.1187H61.575V45.2825H65.9955V43.9168H62.9515ZM70.1826 38.3635V37.1187H66.973V38.3635H67.8895V44.0343H66.9256V45.2825H70.23V44.0343H69.2661V38.3635H70.1826ZM80.4949 37.1053H79.0947L76.0947 43.4638L72.9696 37.1053H71.5693V45.2825H72.9459V40.1621L75.4622 45.2825H76.7542L79.1184 40.2661V45.2825H80.4949V37.1053ZM86.5118 45.2825H87.9932L84.7023 36.8838L81.4216 45.2825H82.903L83.2548 44.3363H86.1499L86.5118 45.2825ZM84.7023 40.3265L85.7035 43.1585H83.7046L84.7023 40.3265ZM93.0496 37.1187H88.2299V38.3635H89.9582V45.2825H91.3213V38.3635H93.0496V37.1187ZM99.682 38.481V37.1187H94.1927V45.2825H99.682V43.9168H95.5659V41.8767H98.9887V40.5245H95.5659V38.481H99.682Z" fill="black"/>
<path d="M1.59301 50.4705C1.50507 50.3598 1.30552 50.1517 0.936863 50.1517C0.439683 50.1517 0 50.494 0 51.1517C0 51.8227 0.453212 52.1617 0.936863 52.1617C1.26832 52.1617 1.48816 51.9838 1.59301 51.8395V52.108H1.92784V50.1987H1.59301V50.4705ZM0.970685 50.447C1.26832 50.447 1.6133 50.6651 1.6133 51.155C1.6133 51.5375 1.37993 51.8697 0.970685 51.8697C0.57497 51.8697 0.3416 51.5543 0.3416 51.1517C0.3416 50.6852 0.642614 50.447 0.970685 50.447ZM4.41374 50.1987V52.108H4.7452V50.1987H4.41374ZM4.34272 49.4773C4.34272 49.6048 4.45095 49.7122 4.57947 49.7122C4.71137 49.7122 4.81622 49.6048 4.81622 49.4773C4.81622 49.3464 4.71137 49.2424 4.57947 49.2424C4.45095 49.2424 4.34272 49.3464 4.34272 49.4773ZM7.2311 52.108H7.56593V51.1013C7.56593 50.7893 7.62343 50.6584 7.67755 50.5846C7.72828 50.5175 7.81283 50.4671 7.94474 50.4671C7.99885 50.4671 8.0665 50.4806 8.1409 50.5309L8.29987 50.2323C8.21193 50.1886 8.10708 50.1517 8.00223 50.1517C7.73842 50.1517 7.60314 50.3564 7.56593 50.4067V50.1987H7.2311V52.108ZM14.9019 50.3363C14.8106 50.2692 14.6144 50.1517 14.3032 50.1517C13.7114 50.1517 13.2751 50.5812 13.2751 51.1651C13.2751 51.7355 13.7046 52.1617 14.3032 52.1617C14.4859 52.1617 14.7057 52.118 14.9154 51.9637V51.5711C14.7362 51.7858 14.4926 51.8697 14.2931 51.8697C13.9515 51.8697 13.6167 51.6214 13.6167 51.1617C13.6167 50.6953 13.9413 50.447 14.2999 50.447C14.469 50.447 14.7226 50.5108 14.9019 50.7322V50.3363ZM18.1792 52.1617C18.7643 52.1617 19.2006 51.7355 19.2006 51.1617C19.2006 50.5846 18.7677 50.1517 18.1792 50.1517C17.5907 50.1517 17.1612 50.5846 17.1612 51.1617C17.1612 51.7355 17.5975 52.1617 18.1792 52.1617ZM18.1792 50.447C18.531 50.447 18.8556 50.6953 18.8556 51.1617C18.8556 51.6214 18.5276 51.8697 18.1792 51.8697C17.8376 51.8697 17.5028 51.6281 17.5028 51.1617C17.5028 50.6953 17.8275 50.447 18.1792 50.447ZM21.5648 52.108H21.8996V51.108C21.8996 50.9671 21.9098 50.7457 22.0383 50.5947C22.1364 50.4806 22.2615 50.447 22.3765 50.447C22.5253 50.447 22.6234 50.4973 22.691 50.5846C22.7722 50.692 22.779 50.8195 22.779 50.9336V52.108H23.1138V50.9268C23.1138 50.7087 23.1003 50.5577 23.0022 50.4135C22.8872 50.2457 22.6775 50.1517 22.4509 50.1517C22.1262 50.1517 21.9639 50.343 21.8996 50.4202V50.1987H21.5648V52.108ZM27.0743 50.4705C26.9864 50.3598 26.7869 50.1517 26.4148 50.1517C25.9176 50.1517 25.478 50.494 25.478 51.1517C25.478 51.8227 25.9345 52.1617 26.4148 52.1617C26.7496 52.1617 26.9661 51.9838 27.0743 51.8395V52.108H27.4092V48.7559H27.0743V50.4705ZM26.452 50.447C26.7496 50.447 27.0912 50.6651 27.0912 51.155C27.0912 51.5375 26.8613 51.8697 26.452 51.8697C26.0529 51.8697 25.8229 51.5543 25.8229 51.1517C25.8229 50.6852 26.1239 50.447 26.452 50.447ZM29.8917 50.1987V52.108H30.2265V50.1987H29.8917ZM29.8241 49.4773C29.8241 49.6048 29.9289 49.7122 30.0608 49.7122C30.1893 49.7122 30.2976 49.6048 30.2976 49.4773C30.2976 49.3464 30.1893 49.2424 30.0608 49.2424C29.9289 49.2424 29.8241 49.3464 29.8241 49.4773ZM33.3889 50.5041V50.1987H33.054V49.5075H32.7226V50.1987H32.5163V50.5041H32.7226V52.108H33.054V50.5041H33.3889ZM35.5602 50.1987V52.108H35.8917V50.1987H35.5602ZM35.4892 49.4773C35.4892 49.6048 35.5974 49.7122 35.726 49.7122C35.8579 49.7122 35.9627 49.6048 35.9627 49.4773C35.9627 49.3464 35.8579 49.2424 35.726 49.2424C35.5974 49.2424 35.4892 49.3464 35.4892 49.4773ZM39.2772 52.1617C39.8624 52.1617 40.2987 51.7355 40.2987 51.1617C40.2987 50.5846 39.8657 50.1517 39.2772 50.1517C38.6887 50.1517 38.2592 50.5846 38.2592 51.1617C38.2592 51.7355 38.6955 52.1617 39.2772 52.1617ZM39.2772 50.447C39.6324 50.447 39.9537 50.6953 39.9537 51.1617C39.9537 51.6214 39.6256 51.8697 39.2772 51.8697C38.9356 51.8697 38.6008 51.6281 38.6008 51.1617C38.6008 50.6953 38.9255 50.447 39.2772 50.447ZM42.6628 52.108H42.9976V51.108C42.9976 50.9671 43.0078 50.7457 43.1363 50.5947C43.2344 50.4806 43.3595 50.447 43.4745 50.447C43.6233 50.447 43.7214 50.4973 43.7891 50.5846C43.8702 50.692 43.877 50.8195 43.877 50.9336V52.108H44.2118V50.9268C44.2118 50.7087 44.1983 50.5577 44.1002 50.4135C43.9852 50.2457 43.7755 50.1517 43.5489 50.1517C43.2242 50.1517 43.0619 50.343 42.9976 50.4202V50.1987H42.6628V52.108ZM46.6977 50.1987V52.108H47.0326V50.1987H46.6977ZM46.6267 49.4773C46.6267 49.6048 46.7349 49.7122 46.8635 49.7122C46.9954 49.7122 47.1002 49.6048 47.1002 49.4773C47.1002 49.3464 46.9954 49.2424 46.8635 49.2424C46.7349 49.2424 46.6267 49.3464 46.6267 49.4773ZM49.5151 52.108H49.8499V51.108C49.8499 50.9671 49.8601 50.7457 49.9886 50.5947C50.0867 50.4806 50.2118 50.447 50.3268 50.447C50.4756 50.447 50.5737 50.4973 50.6447 50.5846C50.7225 50.692 50.7327 50.8195 50.7327 50.9336V52.108H51.0641V50.9268C51.0641 50.7087 51.0506 50.5577 50.9559 50.4135C50.8375 50.2457 50.6312 50.1517 50.4012 50.1517C50.0765 50.1517 49.9142 50.343 49.8499 50.4202V50.1987H49.5151V52.108ZM55.0247 50.4705C54.8725 50.2725 54.6492 50.1517 54.3685 50.1517C54.1081 50.1517 53.8713 50.249 53.709 50.4101C53.5636 50.5544 53.4317 50.7792 53.4317 51.1517C53.4317 51.5375 53.5771 51.7758 53.709 51.9066C53.8578 52.0543 54.0844 52.1617 54.3685 52.1617C54.7 52.1617 54.9198 51.9838 55.0247 51.8395V52.118C55.0247 52.2791 55.0145 52.4435 54.9198 52.6046C54.8116 52.7858 54.6391 52.873 54.4091 52.873C54.2603 52.873 54.0878 52.8395 53.9457 52.6885C53.8578 52.5945 53.7969 52.4536 53.7969 52.2925H53.4689C53.4689 52.571 53.5872 52.7791 53.7191 52.9099C53.8477 53.0374 54.0709 53.1649 54.4057 53.1649C54.771 53.1649 55.0314 53.0106 55.1735 52.8126C55.3595 52.5643 55.3595 52.269 55.3595 52.061V50.1987H55.0247V50.4705ZM54.4057 50.447C54.5748 50.447 54.7338 50.5108 54.8386 50.6181C54.9638 50.7322 55.045 50.9302 55.045 51.155C55.045 51.3798 54.957 51.5845 54.8251 51.7087C54.7203 51.8127 54.5748 51.8697 54.4057 51.8697C54.2231 51.8697 54.0979 51.8093 53.9931 51.712C53.8071 51.5409 53.7733 51.3161 53.7733 51.1517C53.7733 50.9906 53.8071 50.7926 53.9694 50.6282C54.0607 50.5343 54.1994 50.447 54.4057 50.447ZM62.2558 50.4705C62.1678 50.3598 61.9683 50.1517 61.5962 50.1517C61.0991 50.1517 60.6594 50.494 60.6594 51.1517C60.6594 51.8227 61.1126 52.1617 61.5962 52.1617C61.9311 52.1617 62.1475 51.9838 62.2558 51.8395V52.108H62.5872V50.1987H62.2558V50.4705ZM61.6334 50.447C61.9311 50.447 62.2727 50.6651 62.2727 51.155C62.2727 51.5375 62.0427 51.8697 61.6334 51.8697C61.2343 51.8697 61.001 51.5543 61.001 51.1517C61.001 50.6852 61.3054 50.447 61.6334 50.447ZM65.0731 52.108H65.408V51.108C65.408 50.9671 65.4181 50.7457 65.5466 50.5947C65.6447 50.4806 65.7698 50.447 65.8848 50.447C66.0337 50.447 66.1317 50.4973 66.1994 50.5846C66.2805 50.692 66.2873 50.8195 66.2873 50.9336V52.108H66.6222V50.9268C66.6222 50.7087 66.6086 50.5577 66.5105 50.4135C66.3955 50.2457 66.1859 50.1517 65.9592 50.1517C65.6346 50.1517 65.4722 50.343 65.408 50.4202V50.1987H65.0731V52.108ZM70.5827 50.4705C70.4948 50.3598 70.2952 50.1517 69.9232 50.1517C69.4294 50.1517 68.9863 50.494 68.9863 51.1517C68.9863 51.8227 69.4429 52.1617 69.9232 52.1617C70.258 52.1617 70.4745 51.9838 70.5827 51.8395V52.108H70.9175V48.7559H70.5827V50.4705ZM69.9604 50.447C70.258 50.447 70.5996 50.6651 70.5996 51.155C70.5996 51.5375 70.3696 51.8697 69.9604 51.8697C69.5613 51.8697 69.3313 51.5543 69.3313 51.1517C69.3313 50.6852 69.6323 50.447 69.9604 50.447ZM76.0584 50.1987L77.0054 52.2321L77.9491 50.1987H77.5804L77.0054 51.4872L76.4305 50.1987H76.0584ZM81.5849 51.4671C81.5443 51.561 81.4733 51.6583 81.3854 51.7322C81.2738 51.8228 81.1452 51.8697 80.993 51.8697C80.6582 51.8697 80.3809 51.6114 80.3809 51.2188H81.8792C81.8927 50.9638 81.8217 50.6718 81.6965 50.5041C81.5815 50.3363 81.3448 50.1517 80.9694 50.1517C80.3944 50.1517 80.0359 50.5947 80.0359 51.1651C80.0359 51.8764 80.5229 52.1617 80.9863 52.1617C81.2399 52.1617 81.453 52.0845 81.6289 51.9301C81.7236 51.8395 81.8081 51.7254 81.8656 51.6214L81.5849 51.4671ZM80.4045 50.9436C80.4553 50.6551 80.6852 50.447 80.9694 50.447C81.2535 50.447 81.4801 50.645 81.5342 50.9436H80.4045ZM84.2433 52.108H84.5781V51.108C84.5781 50.9671 84.5849 50.7457 84.7168 50.5947C84.8149 50.4806 84.94 50.447 85.055 50.447C85.2038 50.447 85.2985 50.4973 85.3696 50.5846C85.4474 50.692 85.4575 50.8195 85.4575 50.9336V52.108H85.7923V50.9268C85.7923 50.7087 85.7788 50.5577 85.6807 50.4135C85.5657 50.2457 85.356 50.1517 85.1294 50.1517C84.8047 50.1517 84.6424 50.343 84.5781 50.4202V50.1987H84.2433V52.108ZM88.9547 50.5041V50.1987H88.6199V49.5075H88.285V50.1987H88.0821V50.5041H88.285V52.108H88.6199V50.5041H88.9547ZM91.1227 50.1987V52.108H91.4575V50.1987H91.1227ZM91.055 49.4773C91.055 49.6048 91.1599 49.7122 91.2918 49.7122C91.4203 49.7122 91.5285 49.6048 91.5285 49.4773C91.5285 49.3464 91.4203 49.2424 91.2918 49.2424C91.1599 49.2424 91.055 49.3464 91.055 49.4773ZM93.9434 48.7559V52.108H94.2782V48.7559H93.9434ZM98.2388 50.4705C98.1508 50.3598 97.9513 50.1517 97.5792 50.1517C97.0821 50.1517 96.6424 50.494 96.6424 51.1517C96.6424 51.8227 97.0956 52.1617 97.5792 52.1617C97.9141 52.1617 98.1305 51.9838 98.2388 51.8395V52.108H98.5702V50.1987H98.2388V50.4705ZM97.6164 50.447C97.9141 50.447 98.2557 50.6651 98.2557 51.155C98.2557 51.5375 98.0257 51.8697 97.6164 51.8697C97.2173 51.8697 96.984 51.5543 96.984 51.1517C96.984 50.6852 97.2884 50.447 97.6164 50.447ZM101.733 50.5041V50.1987H101.401V49.5075H101.066V50.1987H100.863V50.5041H101.066V52.108H101.401V50.5041H101.733ZM103.904 50.1987V52.108H104.239V50.1987H103.904ZM103.833 49.4773C103.833 49.6048 103.941 49.7122 104.07 49.7122C104.202 49.7122 104.306 49.6048 104.306 49.4773C104.306 49.3464 104.202 49.2424 104.07 49.2424C103.941 49.2424 103.833 49.3464 103.833 49.4773ZM107.621 52.1617C108.206 52.1617 108.642 51.7355 108.642 51.1617C108.642 50.5846 108.213 50.1517 107.621 50.1517C107.032 50.1517 106.603 50.5846 106.603 51.1617C106.603 51.7355 107.039 52.1617 107.621 52.1617ZM107.621 50.447C107.976 50.447 108.301 50.6953 108.301 51.1617C108.301 51.6214 107.969 51.8697 107.621 51.8697C107.279 51.8697 106.944 51.6281 106.944 51.1617C106.944 50.6953 107.269 50.447 107.621 50.447ZM111.006 52.108H111.341V51.108C111.341 50.9671 111.351 50.7457 111.48 50.5947C111.578 50.4806 111.703 50.447 111.818 50.447C111.967 50.447 112.065 50.4973 112.133 50.5846C112.214 50.692 112.224 50.8195 112.224 50.9336V52.108H112.556V50.9268C112.556 50.7087 112.542 50.5577 112.444 50.4135C112.329 50.2457 112.119 50.1517 111.893 50.1517C111.568 50.1517 111.406 50.343 111.341 50.4202V50.1987H111.006V52.108Z" fill="black"/>
<path d="M71.9093 15.034H68.2568L71.8644 11.4532L70.9314 10.528V8.71989L65.8263 8.72032L68.4116 6.15585L66.5456 4.30588L63.9624 6.86774L63.9616 1.80422L62.14 1.80466L61.2056 0.878582L57.5958 4.45986V0.834961H54.9582V4.46117L51.3466 0.879018L50.1195 2.09692H48.8897V7.16175L46.3056 4.59771L44.4396 6.44811L47.0245 9.01302H41.9176V10.2335L40.69 11.4532L44.2998 15.0336H40.6465V17.6504H44.3007L40.69 21.2339L41.9176 22.4509V23.6732H47.0228L44.4392 26.2368L46.3052 28.0858L48.8892 25.5222L48.8901 30.5893H50.1199L51.3475 31.8063L54.9582 28.2241V31.8512H57.5958V28.2254L61.207 31.8072L62.1386 30.8815H63.962V25.818L66.5451 28.3807L68.4112 26.5316L65.8271 23.9667L70.931 23.9658V22.1586L71.864 21.2339L68.2533 17.6504H71.9084V15.034H71.9093ZM68.252 11.3371L64.5261 15.034H59.4618L63.1882 11.3376L68.252 11.3371ZM61.3252 4.46248L61.3261 9.48369L57.5963 13.1836V8.1611L61.3252 4.46248ZM51.5273 4.75823L54.9582 8.16066V13.1832L51.5273 9.77857V4.75823ZM44.5988 11.6298H49.6626L53.0935 15.0336H48.0305L44.5988 11.6298ZM44.5988 21.0568L48.031 17.6504H53.0939L49.6609 21.0568H44.5988ZM51.5273 27.9279L51.5264 22.9067L54.9586 19.5017V24.5216L51.5273 27.9279ZM61.3252 28.2241L57.5963 24.5264V19.5008L61.3252 23.2012V28.2241ZM68.2511 21.3503L63.1912 21.3512L59.4614 17.6508H64.5222L68.2511 21.3503Z" fill="#DB3447"/>
</svg>
