<svg width="658" height="658" viewBox="0 0 658 658" fill="none" xmlns="http://www.w3.org/2000/svg">
<path d="M658 301.229H581.126L657.056 225.262L637.419 205.634V167.276L529.968 167.285L584.383 112.881L545.108 73.6345L490.74 127.984L490.721 20.5625L452.381 20.5718L432.716 0.925409L356.739 76.9012V0H301.224V76.9289L225.21 0.934658L199.381 26.772H173.497V134.221L119.111 79.8254L79.8358 119.081L134.241 173.495H26.7538V199.388L0.916164 225.262L76.893 301.219H0V356.734H76.9115L0.916164 432.756L26.7538 458.575V484.505H134.204L79.8266 538.891L119.101 578.119L173.488 523.733L173.507 631.228H199.391L225.228 657.047L301.224 581.053V658H356.739V581.08L432.744 657.065L452.354 637.428H490.731V530.007L545.099 584.375L584.374 545.147L529.987 490.733L637.409 490.715V452.375L657.047 432.756L581.052 356.734H657.982V301.229H658ZM581.024 222.801L502.604 301.229H396.014L474.443 222.81L581.024 222.801ZM435.233 76.9567L435.252 183.48L356.749 261.973V155.422L435.233 76.9567ZM229.013 83.2309L301.224 155.413V261.964L229.013 189.736V83.2309ZM83.1858 229.01H189.766L261.977 301.219H155.415L83.1858 229.01ZM83.1858 428.999L155.424 356.734H261.986L189.729 428.999H83.1858ZM229.013 574.769L228.995 468.246L301.233 396.009V502.504L229.013 574.769ZM435.233 581.053L356.749 502.606V395.99L435.233 474.492V581.053ZM581.005 435.227L474.508 435.246L396.005 356.744H502.521L581.005 435.227Z" fill="#DB3447"/>
</svg>
