<svg width="53" height="52" viewBox="0 0 53 52" fill="none" xmlns="http://www.w3.org/2000/svg">
<rect x="0.484375" width="52" height="52" rx="26" fill="white"/>
<g clip-path="url(#clip0_321_976)">
<path d="M38.5709 14.4828C36.7115 15.1664 13.7701 23.9766 13.431 24.1406C12.3099 24.6711 12.1787 25.3711 13.1138 25.8469C13.2068 25.8961 14.7545 26.3883 16.5646 26.9516L19.8513 27.9742L27.3107 23.3039C31.4178 20.7391 34.8576 18.6063 34.956 18.5735C35.2131 18.4859 35.4318 18.4914 35.5303 18.5953C35.6013 18.6664 35.6068 18.6992 35.5467 18.8031C35.5138 18.8742 32.7849 21.3516 29.4928 24.3047C26.2006 27.2633 23.4935 29.7024 23.4826 29.7297C23.4717 29.757 23.3623 31.2336 23.2365 33.011L23.0068 36.2375L23.2584 36.2047C23.3951 36.1883 23.6084 36.1172 23.7342 36.0461C23.8654 35.9805 24.7185 35.2039 25.6428 34.3235C26.5615 33.443 27.349 32.7047 27.3873 32.6938C27.4256 32.6774 28.8912 33.7164 30.6467 35.0016C32.3967 36.2867 33.9662 37.3969 34.1357 37.4735C34.5787 37.6813 35.0709 37.6977 35.3935 37.5281C35.6834 37.375 35.9623 36.9922 36.0826 36.593C36.1263 36.4399 37.1326 31.8078 38.3084 26.3008C40.2717 17.1352 40.4521 16.2492 40.4521 15.7734C40.4521 15.325 40.4357 15.2156 40.3154 14.9805C40.2334 14.811 40.0857 14.6414 39.9435 14.543C39.6209 14.3188 39.0849 14.2914 38.5709 14.4828Z" fill="#565656"/>
</g>
<defs>
<clipPath id="clip0_321_976">
<rect width="28" height="28" fill="white" transform="translate(12.4844 12)"/>
</clipPath>
</defs>
</svg>
