<svg width="28" height="28" viewBox="0 0 28 28" fill="none" xmlns="http://www.w3.org/2000/svg">
<path d="M26.0865 2.48283C24.2271 3.16642 1.28572 11.9766 0.946656 12.1406C-0.174438 12.6711 -0.305688 13.3711 0.629469 13.8469C0.722437 13.8961 2.27009 14.3883 4.08025 14.9516L7.36697 15.9742L14.8263 11.3039C18.9334 8.73907 22.3732 6.60626 22.4717 6.57345C22.7287 6.48595 22.9474 6.49142 23.0459 6.59532C23.117 6.66642 23.1224 6.69923 23.0623 6.80314C23.0295 6.87423 20.3006 9.35157 17.0084 12.3047C13.7162 15.2633 11.0092 17.7024 10.9982 17.7297C10.9873 17.757 10.8779 19.2336 10.7521 21.011L10.5224 24.2375L10.774 24.2047C10.9107 24.1883 11.124 24.1172 11.2498 24.0461C11.381 23.9805 12.2342 23.2039 13.1584 22.3235C14.0771 21.443 14.8646 20.7047 14.9029 20.6938C14.9412 20.6774 16.4068 21.7164 18.1623 23.0016C19.9123 24.2867 21.4818 25.3969 21.6513 25.4735C22.0943 25.6813 22.5865 25.6977 22.9092 25.5281C23.199 25.375 23.4779 24.9922 23.5982 24.593C23.642 24.4399 24.6482 19.8078 25.824 14.3008C27.7873 5.13517 27.9678 4.24923 27.9678 3.77345C27.9678 3.32501 27.9513 3.21564 27.831 2.98048C27.749 2.81095 27.6013 2.64142 27.4592 2.54298C27.1365 2.31876 26.6006 2.29142 26.0865 2.48283Z" fill="#565656"/>
</svg>
