<svg width="53" height="52" viewBox="0 0 53 52" fill="none" xmlns="http://www.w3.org/2000/svg">
<rect x="0.484375" width="52" height="52" rx="26" fill="white"/>
<g clip-path="url(#clip0_321_980)">
<path d="M22.7547 18.1468C22.6125 18.1851 22.4539 18.2507 22.3992 18.289C22.1695 18.464 21.9289 18.7101 21.8578 18.8413C21.7648 19.0218 21.8141 19.071 22.1641 19.164C22.7055 19.3116 23.0609 19.596 23.2578 20.0609C23.4492 20.5148 23.5477 21.6741 23.5094 23.0468C23.4656 24.6765 23.3234 25.3491 22.9734 25.6445C22.5031 26.0437 21.8687 25.557 20.8133 23.9765C20.0312 22.8007 19.3367 21.5101 18.6039 19.8476C18.2703 19.0874 18.0133 18.7757 17.6359 18.6718C17.4664 18.6281 16.7391 18.6171 15.175 18.6281C12.7141 18.6445 12.6812 18.6499 12.5391 18.9945C12.4352 19.2515 12.5062 19.4866 13.0148 20.5859C14.5133 23.8234 15.9133 26.3226 17.3734 28.3788C19.9273 31.9827 22.3773 33.5741 25.8281 33.8749C27.0312 33.9788 28.0047 33.9241 28.382 33.7273C28.6883 33.5687 28.7812 33.3335 28.8687 32.4968C28.9562 31.6109 29.0219 31.321 29.2297 30.8781C29.5086 30.282 29.9352 30.0906 30.4547 30.3148C30.6625 30.4077 30.9031 30.621 31.5156 31.2663C33.3039 33.1366 33.5336 33.3499 34.0367 33.5906C34.332 33.7327 34.6383 33.8312 34.8898 33.8695C35.3875 33.946 39.5656 33.9515 39.8227 33.8749C40.4242 33.7054 40.6211 32.9945 40.2711 32.2781C39.9156 31.5616 39.2703 30.796 37.7172 29.2538C36.9023 28.439 36.1641 27.6679 36.0766 27.5421C35.8687 27.2195 35.8633 26.8531 36.0602 26.4374C36.1367 26.2734 36.8258 25.2999 37.5859 24.2773C39.1445 22.1827 39.6531 21.4335 40.0086 20.7226C40.5227 19.689 40.5992 19.1695 40.2766 18.8851C40.0031 18.639 39.7406 18.6171 37.05 18.6171C34.7039 18.6171 34.5344 18.6281 34.3211 18.7265C34.0367 18.8523 33.9602 18.9726 33.5336 19.9843C32.6477 22.057 31.6797 23.7249 30.6461 24.9335C30.1648 25.5023 29.875 25.7265 29.6234 25.7265C29.3281 25.7265 29.0437 25.4312 28.8742 24.939C28.8359 24.8296 28.8031 23.7031 28.7867 21.8437C28.7539 19.0109 28.7484 18.9124 28.6391 18.6663C28.5133 18.3984 28.3273 18.2343 28.0211 18.1359C27.7477 18.0429 23.1047 18.0538 22.7547 18.1468Z" fill="#565656"/>
</g>
<defs>
<clipPath id="clip0_321_980">
<rect width="28" height="28" fill="white" transform="translate(12.4844 12)"/>
</clipPath>
</defs>
</svg>
