<svg width="28" height="28" viewBox="0 0 28 28" fill="none" xmlns="http://www.w3.org/2000/svg">
<path d="M10.2703 6.1468C10.1281 6.18508 9.96953 6.25071 9.91484 6.28899C9.68516 6.46399 9.44453 6.71008 9.37344 6.84133C9.28047 7.0218 9.32969 7.07102 9.67969 7.16399C10.2211 7.31165 10.5766 7.59602 10.7734 8.06086C10.9648 8.51477 11.0633 9.67415 11.025 11.0468C10.9812 12.6765 10.8391 13.3491 10.4891 13.6445C10.0188 14.0437 9.38437 13.557 8.32891 11.9765C7.54688 10.8007 6.85234 9.51008 6.11953 7.84758C5.78594 7.08743 5.52891 6.77571 5.15156 6.6718C4.98203 6.62805 4.25469 6.61711 2.69062 6.62805C0.229687 6.64446 0.196875 6.64993 0.0546875 6.99446C-0.0492188 7.25149 0.021875 7.48665 0.530469 8.58586C2.02891 11.8234 3.42891 14.3226 4.88906 16.3788C7.44297 19.9827 9.89297 21.5741 13.3438 21.8749C14.5469 21.9788 15.5203 21.9241 15.8977 21.7273C16.2039 21.5687 16.2969 21.3335 16.3844 20.4968C16.4719 19.6109 16.5375 19.321 16.7453 18.8781C17.0242 18.282 17.4508 18.0906 17.9703 18.3148C18.1781 18.4077 18.4187 18.621 19.0312 19.2663C20.8195 21.1366 21.0492 21.3499 21.5523 21.5906C21.8477 21.7327 22.1539 21.8312 22.4055 21.8695C22.9031 21.946 27.0812 21.9515 27.3383 21.8749C27.9398 21.7054 28.1367 20.9945 27.7867 20.2781C27.4312 19.5616 26.7859 18.796 25.2328 17.2538C24.418 16.439 23.6797 15.6679 23.5922 15.5421C23.3844 15.2195 23.3789 14.8531 23.5758 14.4374C23.6523 14.2734 24.3414 13.2999 25.1016 12.2773C26.6602 10.1827 27.1687 9.43352 27.5242 8.72258C28.0383 7.68899 28.1148 7.16946 27.7922 6.88508C27.5187 6.63899 27.2563 6.61711 24.5656 6.61711C22.2195 6.61711 22.05 6.62805 21.8367 6.72649C21.5523 6.85227 21.4758 6.97258 21.0492 7.9843C20.1633 10.057 19.1953 11.7249 18.1617 12.9335C17.6805 13.5023 17.3906 13.7265 17.1391 13.7265C16.8438 13.7265 16.5594 13.4312 16.3898 12.939C16.3516 12.8296 16.3188 11.7031 16.3023 9.84368C16.2695 7.01086 16.2641 6.91243 16.1547 6.66633C16.0289 6.39836 15.843 6.2343 15.5367 6.13586C15.2633 6.0429 10.6203 6.05383 10.2703 6.1468Z" fill="#565656"/>
</svg>
