<svg width="28" height="28" viewBox="0 0 28 28" fill="none" xmlns="http://www.w3.org/2000/svg">
<path d="M12.9884 0.00821304C10.8721 0.210789 9.27668 0.670691 7.54416 1.56312C4.90151 2.93187 2.76875 5.10545 1.44743 7.77726C0.937537 8.80109 0.701782 9.43072 0.433131 10.4381C0.104171 11.7083 0.00548267 12.4803 0 13.8819C0 14.5827 0.0274134 15.3383 0.0657921 15.6339C0.367339 17.8787 1.06912 19.8114 2.2479 21.6181L2.64265 22.2258L1.7709 24.7936C1.28843 26.2116 0.904641 27.3724 0.915606 27.3833C0.926571 27.3943 2.12179 27.022 3.58018 26.5566C5.03857 26.0912 6.25024 25.7079 6.27766 25.7079C6.29959 25.7079 6.52438 25.8339 6.77658 25.9926C7.02878 26.1459 7.55512 26.4306 7.94439 26.6168C11.4917 28.3086 15.5434 28.4564 19.1729 27.0165C23.2849 25.3904 26.4429 21.8262 27.5724 17.5447C27.9178 16.2307 28 15.5135 28 13.9914C28 12.4694 27.9178 11.7521 27.5724 10.4381C26.2455 5.41753 22.2158 1.51384 17.1279 0.325764C16.2726 0.128664 15.3844 0.0246372 14.3043 0.00821304C13.7012 -0.00273705 13.1091 -0.00273705 12.9884 0.00821304ZM9.64402 6.50158C9.73722 6.55086 9.86333 6.68226 9.92912 6.80271C10.0881 7.09289 11.4259 10.2958 11.4643 10.4929C11.5136 10.7392 11.2669 11.1608 10.7241 11.774C10.1539 12.4146 10.0333 12.6172 10.0826 12.8471C10.1758 13.2632 11.4423 14.9441 12.2264 15.6832C13.438 16.8275 15.2692 17.917 16.0862 17.9772C16.5083 18.0046 16.6564 17.8896 17.3033 17.0355C17.5939 16.6468 17.9009 16.2581 17.9941 16.1705C18.2025 15.9569 18.515 15.9131 18.8714 16.0445C19.3209 16.2143 22.0787 17.5556 22.2761 17.7035L22.4625 17.8403L22.4296 18.4207C22.3528 19.9099 21.8265 20.6819 20.4449 21.3553C19.129 21.9959 18.0983 21.9795 16.0862 21.2841C13.3777 20.3479 11.9467 19.4555 10.0004 17.5009C9.02448 16.5263 8.33366 15.6996 7.54416 14.5663C6.23928 12.7048 5.74036 11.2648 5.88839 9.80302C6.00901 8.63136 6.42021 7.76631 7.24809 6.93958C7.64833 6.53991 8.16918 6.37566 8.95868 6.40303C9.29313 6.41398 9.53985 6.44683 9.64402 6.50158Z" fill="#565656"/>
</svg>
