<svg width="53" height="52" viewBox="0 0 53 52" fill="none" xmlns="http://www.w3.org/2000/svg">
<rect x="0.484375" width="52" height="52" rx="26" fill="white"/>
<path d="M25.4728 12.0082C23.3565 12.2108 21.7611 12.6707 20.0285 13.5631C17.3859 14.9319 15.2531 17.1055 13.9318 19.7773C13.4219 20.8011 13.1862 21.4307 12.9175 22.4381C12.5885 23.7083 12.4899 24.4803 12.4844 25.8819C12.4844 26.5827 12.5118 27.3383 12.5502 27.6339C12.8517 29.8787 13.5535 31.8114 14.7323 33.6181L15.127 34.2258L14.2553 36.7936C13.7728 38.2116 13.389 39.3724 13.4 39.3833C13.4109 39.3943 14.6062 39.022 16.0646 38.5566C17.5229 38.0912 18.7346 37.7079 18.762 37.7079C18.784 37.7079 19.0088 37.8339 19.261 37.9926C19.5132 38.1459 20.0395 38.4306 20.4288 38.6168C23.9761 40.3086 28.0277 40.4564 31.6573 39.0165C35.7693 37.3904 38.9273 33.8262 40.0567 29.5447C40.4021 28.2307 40.4844 27.5135 40.4844 25.9914C40.4844 24.4694 40.4021 23.7521 40.0567 22.4381C38.7299 17.4175 34.7002 13.5138 29.6122 12.3258C28.7569 12.1287 27.8687 12.0246 26.7887 12.0082C26.1856 11.9973 25.5934 11.9973 25.4728 12.0082ZM22.1284 18.5016C22.2216 18.5509 22.3477 18.6823 22.4135 18.8027C22.5725 19.0929 23.9103 22.2958 23.9486 22.4929C23.998 22.7392 23.7513 23.1608 23.2085 23.774C22.6383 24.4146 22.5177 24.6172 22.567 24.8471C22.6602 25.2632 23.9267 26.9441 24.7107 27.6832C25.9224 28.8275 27.7536 29.917 28.5705 29.9772C28.9927 30.0046 29.1407 29.8896 29.7877 29.0355C30.0783 28.6468 30.3853 28.2581 30.4785 28.1705C30.6868 27.9569 30.9994 27.9131 31.3557 28.0445C31.8053 28.2143 34.5631 29.5556 34.7605 29.7035L34.9469 29.8403L34.914 30.4207C34.8372 31.9099 34.3109 32.6819 32.9293 33.3553C31.6134 33.9959 30.5827 33.9795 28.5705 33.2841C25.8621 32.3479 24.4311 31.4555 22.4848 29.5009C21.5089 28.5263 20.818 27.6996 20.0285 26.5663C18.7237 24.7048 18.2247 23.2648 18.3728 21.803C18.4934 20.6314 18.9046 19.7663 19.7325 18.9396C20.1327 18.5399 20.6536 18.3757 21.4431 18.403C21.7775 18.414 22.0242 18.4468 22.1284 18.5016Z" fill="#565656"/>
</svg>
